<?xml version="1.0" encoding="utf-8"?>
<!-- Generator: Adobe Illustrator 16.0.3, SVG Export Plug-In . SVG Version: 6.00 Build 0)  -->
<!DOCTYPE svg PUBLIC "-//W3C//DTD SVG 1.1//EN" "http://www.w3.org/Graphics/SVG/1.1/DTD/svg11.dtd">
<svg version="1.1" xmlns="http://www.w3.org/2000/svg" xmlns:xlink="http://www.w3.org/1999/xlink" x="0px" y="0px" width="792px"
	 height="612px" viewBox="0 0 792 612" enable-background="new 0 0 792 612" xml:space="preserve">
<g id="Layer_1">
	<rect x="223.44" y="556.885" fill-rule="evenodd" clip-rule="evenodd" fill="none" width="374.916" height="30.158"/>
	<text transform="matrix(1 0 0 1 223.4399 572.0059)" fill="#6D6E70" font-family="'KievitOT-ExtraLight'" font-size="21">PHOTOGRAPHY BY STEPHANIE</text>
	<rect x="407" y="467.148" fill-rule="evenodd" clip-rule="evenodd" fill="none" width="235.817" height="75.787"/>
	<g>
		<defs>
			<rect id="SVGID_1_" x="125.504" y="449.956" width="202.454" height="112.009"/>
		</defs>
		<clipPath id="SVGID_2_">
			<use xlink:href="#SVGID_1_"  overflow="visible"/>
		</clipPath>
		<g opacity="0.5" clip-path="url(#SVGID_2_)">
			<path fill-rule="evenodd" clip-rule="evenodd" d="M474.123,526.435c1.076,0.778,2.146,1.566,3.232,2.331
				c7.469,5.251,14.91,3.729,19.361-4.242c1.846-3.303,2.898-7.041,4.621-10.424c1.023-2.012,2.387-4.039,4.104-5.439
				c1.025-0.836,3.029-0.473,4.596-0.647c0.063,1.534,0.75,3.489,0.059,4.519c-1.518,2.264-3.443,4.561-5.752,5.891
				c-1.889,1.087-2.176,1.823-1.762,3.742c1.582,7.357,7.836,9.783,13.869,4.92c5.408-4.357,9.92-9.467,9.146-17.246
				c-0.047-0.463,0.188-0.959,0.326-1.43c0.02-0.07,0.229-0.085,1.088-0.371c0.344,3.324,0.674,6.498,1.004,9.682
				c1.762-1.592,3.396-3.466,5.395-4.789c4.016-2.659,6.174-1.447,6.344,3.333c0.094,2.662-0.119,5.354,0.211,7.983
				c0.418,3.343,1.285,6.58,5.068,7.891c3.662,1.27,6.625-0.203,9.057-2.617c4.898-4.86,9.098-10.582,10.777-17.129
				c1.406-5.49,0.553-11.572,0.549-17.392c0-0.386-1.391-1.213-1.969-1.085c-4.109,0.914-7.807,2.682-10.918,5.635
				c-0.541,0.514-1.652,0.424-2.502,0.613c0.355-0.816,0.486-2.055,1.104-2.383c3.488-1.857,7-3.744,10.689-5.123
				c2.389-0.892,4.045-1.598,3.992-4.618c-0.055-3.135,0.441-6.289,0.826-9.419c0.207-1.686,0.688-3.338,1.045-5.005
				c0.432,0.064,0.863,0.128,1.293,0.192c-0.135,2.074-0.23,4.153-0.422,6.223c-0.121,1.322-0.525,2.627-0.559,3.945
				c-0.164,6.537-1.309,7.433,6.305,5.988c5.359-1.018,10.988-0.551,16.396-1.389c8.834-1.367,17.604-3.179,26.363-4.984
				c2-0.413,4.314-0.911,4.828-3.645c0.072-0.381,0.965-0.606,1.479-0.904c0.314,0.684,1.063,1.784,0.873,1.98
				c-1.326,1.379-2.656,3.095-4.348,3.713c-3.721,1.361-7.602,2.516-11.516,3.075c-9.029,1.29-18.115,2.185-27.18,3.222
				c-3.299,0.377-6.607,0.666-9.902,1.061c-2.199,0.264-3.58,1.132-3.525,3.799c0.146,7.155-0.221,14.33,0.125,21.472
				c0.313,6.444,2.482,12.364,7.195,17.063c3.779,3.768,7.377,4.019,11.434,0.571c1.756-1.491,3.365-3.271,4.639-5.188
				c3.215-4.839,6.301-9.771,9.25-14.774c2.936-4.982,8.326-7.223,13.57-5.254c1.043,0.393,2.016,1.121,2.834,1.893
				c0.33,0.313,0.162,1.154,0.221,1.756c-0.566-0.092-1.301,0.014-1.674-0.305c-3.48-2.969-7.037-2.48-10.57-0.246
				c-2.799,1.771-2.727,3.443,0.18,5.201c1.973,1.193,4.035,2.232,6.059,3.34c-0.275,0.224-0.549,0.447-0.822,0.67
				c-1.691-0.663-3.426-1.238-5.063-2.019c-1.33-0.634-3.238-2.44-3.678-2.111c-1.361,1.021-2.102,2.843-3.158,4.3
				c-3.203,4.423-6.014,9.232-9.768,13.128c-5.291,5.487-10.158,5.063-15.484-0.307c-3.004-3.026-4.979-6.581-5.893-10.756
				c-0.531-2.424-1.225-4.813-1.92-7.508c-1.832,2.922-3.402,5.886-5.418,8.507c-1.906,2.48-4.027,4.936-6.5,6.812
				c-6.045,4.584-13.947,1.088-14.857-6.417c-0.379-3.133-0.451-6.301-0.766-9.442c-0.34-3.397-1.365-4.001-3.838-1.659
				c-2.215,2.096-3.699,4.961-5.52,7.477c-0.615,0.852-1.271,1.673-1.91,2.508c-0.283-1.033-0.557-2.068-0.854-3.098
				c-0.078-0.27-0.229-0.518-0.313-0.701c-2,2.156-3.891,4.446-6.039,6.463c-6.662,6.257-15.738,6.431-18.932-5.57
				c-0.498,0.836-0.867,1.408-1.189,2.006c-6.379,11.785-16.43,13.14-25.803,3.473C473.58,526.928,473.852,526.682,474.123,526.435z
				 M508.852,510.338c-0.385-0.221-0.996-0.879-1.494-0.803c-1.895,0.291-4.617,3.809-4.613,5.886
				c0.002,0.345,0.727,1.019,1.039,0.976C505.729,516.129,508.627,512.808,508.852,510.338z"/>
			<path fill-rule="evenodd" clip-rule="evenodd" d="M102.153,530.123c1.103-2.98,1.484-5.461,2.807-7.242
				c0.994-1.339,1.933-2.961,3.139-4.151c1.134-1.12,1.134-1.12,3.773-2.774c2.382-1.493,5.034-1.777,7.488-0.059
				c2.544,1.783,2.953,4.252,1.405,7.168c0.143,0.079-0.622,0.962-0.479,1.041c0.162,0.089,1.231-0.627,1.393-0.537
				c4.024-3.25,8.159-6.379,11.98-9.854c0.783-0.713,0.677-2.762,0.489-4.127c-1.58-11.445-1.764-22.9,0.557-34.225
				c0.815-3.979,2.595-7.911,4.649-11.449c2.825-4.865,7.16-4.596,10.052,0.199c2.321,3.848,2.949,8.217,2.895,12.494
				c-0.173,13.549-3.54,26.021-13.871,35.643c-1.619,1.508-1.897,3.094-1.392,4.914c1.057,3.807,2.295,7.563,3.436,11.346
				c0.188,0.625,0.365,1.289,0.345,1.928c-0.014,0.444-0.405,1.26-0.574,1.246c-0.577-0.048-1.341-0.235-1.642-0.652
				c-0.464-0.646-0.684-1.506-0.87-2.307c-0.71-3.066-1.354-6.147-2.043-9.219c-0.986-4.386-1.108-4.508-4.581-1.328
				c-6.244,5.718-13.444,9.695-21.435,12.311c-0.624,0.203-1.447-0.203-2.177-0.326c0.518-0.527,0.944-1.242,1.57-1.549
				c2.079-1.018,4.325-1.721,6.319-2.869c1.399-0.807,2.819-1.939,3.656-3.283c1.899-3.051,0.273-5.586-3.352-5.598
				c-5.099-0.017-10.358,5.553-10.847,11.789c-0.233,2.977,0.075,5.99-0.002,8.984c-0.017,0.654-0.632,1.293-0.972,1.939
				c-0.451-0.57-1.139-1.076-1.318-1.722c-3.546-12.798-7.086-25.603-7.85-38.959c-0.687-12.001,1.041-23.538,6.834-34.238
				c1.103-2.036,2.352-4.031,3.792-5.839c4.119-5.17,9.999-4.902,13.651,0.634c3.434,5.203,3.398,10.964,2.343,16.839
				c-2.469,13.75-9.976,24.505-20.307,33.403c-2.407,2.073-2.998,3.856-2.184,6.735
				C100.049,520.729,100.957,525.116,102.153,530.123z M97.449,510.113c6.803-4.637,10.93-9.856,14.629-15.369
				c4.802-7.158,7.635-15.059,7.813-23.795c0.08-3.912-0.55-7.609-2.869-10.863c-2.75-3.86-5.917-4.342-9.015-0.839
				c-2.384,2.696-4.435,5.812-6.056,9.032c-4.194,8.334-5.668,17.283-5.164,26.584C97.045,499.642,97.206,504.426,97.449,510.113z
				 M134.731,497.145c0.285,3.273,0.707,8.073,1.117,12.873c0.124,1.456,0.747,1.727,1.833,0.771
				c0.621-0.548,1.192-1.162,1.733-1.791c8.604-10.011,11.451-21.896,10.983-34.732c-0.101-2.756-0.98-5.583-2.02-8.168
				c-0.616-1.529-2.319-3.757-3.41-3.689c-1.579,0.1-3.282,1.788-4.488,3.184c-1.039,1.201-1.593,2.893-2.125,4.449
				C135.527,478.324,135.114,486.949,134.731,497.145z"/>
			<path fill-rule="evenodd" clip-rule="evenodd" d="M251.051,497.117c-2.111,3.145-4.088,6.391-6.38,9.398
				c-1.603,2.102-3.663,3.854-5.459,5.814c-0.414,0.453-0.587,1.125-0.871,1.697c0.711,0.209,1.422,0.599,2.132,0.599
				c8.933-0.003,16.922-2.738,23.999-8.235c1.006-0.783,2.441-1.015,3.677-1.501c0.719,2.218-1.396,2.452-2.445,2.996
				c-4.828,2.497-9.784,4.746-14.694,7.086c-0.565,0.269-1.125,0.55-1.687,0.824c0.38,0.438,0.735,0.901,1.144,1.311
				c0.818,0.821,1.9,1.476,2.464,2.438c5.508,9.395,7.476,19.46,4.864,30.111c-1.02,4.16-4.341,5.372-8.163,3.355
				c-5.98-3.156-9.306-8.699-10.917-14.82c-1.929-7.324-2.704-14.954-4.036-22.789c-4.976,1.984-10.321,4.161-15.706,6.236
				c-1.694,0.652-1.446,1.566-1.188,3.072c0.754,4.395-1.277,7.646-4.894,8.454c-2.121,0.475-4.019,0.182-5.251-1.81
				c-1.303-2.105-0.35-3.842,1.187-5.301c1.433-1.361,3.005-2.574,4.516-3.853c0.233-0.255,0.467-0.509,0.7-0.764
				c6.438-2.487,12.849-5.045,19.329-7.415c1.851-0.678,1.911-1.889,1.995-3.455c0.338-6.275,0.565-12.566,1.235-18.809
				c0.836-7.789,2.861-15.251,7.726-21.648c0.3-0.396,0.556-0.825,0.867-1.211c1.884-2.342,4.294-3.906,7.316-3.209
				c2.852,0.657,4.258,2.921,4.504,5.84c-0.208,0.165-0.417,0.33-0.625,0.494c-3.747-5.967-7.757-5.943-11.499,0.15
				c-1.12,1.822-2.18,3.738-2.896,5.743c-3.811,10.677-4.972,21.759-5.142,33.792c5.835-4.578,9.719-9.841,13.483-15.213
				C250.576,496.703,250.813,496.91,251.051,497.117z M257.127,541.608c0.198-0.059,0.397-0.117,0.595-0.176
				c-1.222-5.45-1.989-11.057-3.782-16.313c-2.199-6.444-5.804-8.403-12.573-8.222c-3.602,0.097-3.808,0.164-3.618,3.586
				c0.184,3.296,0.853,6.563,1.057,9.859c0.441,7.131,4.026,12.852,8.053,18.363c0.746,1.022,1.958,1.828,3.12,2.398
				c2.953,1.453,5.785,0.133,6.466-3.077C256.89,545.935,256.915,543.752,257.127,541.608z M216.522,526.129
				c-0.345-0.394-1.016-1.159-1.686-1.925c-1.882,1.689-3.764,3.378-5.646,5.067c0.839,0.771,1.587,2.037,2.535,2.211
				C213.709,531.844,216.4,528.965,216.522,526.129z"/>
			<path fill-rule="evenodd" clip-rule="evenodd" d="M473.309,527.174c-1.924-3.232-4.152-6.326-5.699-9.729
				c-2.236-4.919-4.477-5.519-7.566-1.069c-1.85,2.664-2.803,5.944-4.209,8.924c-0.32,0.683-0.844,1.271-1.273,1.901
				c-0.338-0.784-0.928-1.556-0.969-2.355c-0.133-2.485,0.189-5.017-0.15-7.462c-0.232-1.672-1.016-4.352-2.014-4.582
				c-1.553-0.359-3.871,0.549-5.201,1.691c-3.064,2.631-4.994,6.131-5.928,10.139c-0.162,0.695-0.787,1.281-1.199,1.918
				c-0.26-0.672-0.555-1.334-0.766-2.021c-0.092-0.305,0.018-0.664-0.021-0.992c-0.313-2.633-0.639-5.265-0.959-7.896
				c-2.15,1.109-4.287,2.246-6.457,3.316c-1.186,0.585-2.389,1.352-3.654,1.52c-2.797,0.37-4.668,1.4-5.934,4.209
				c-1.164,2.587-3.928,3.02-6.473,1.982c-1.25-0.51-1.807-0.568-2.787,0.459c-8.046,8.43-15.636,8.411-23.741,0.049
				c0.271-0.246,0.543-0.492,0.814-0.739c3.83,3.001,7.727,5.732,13.012,5.233c4.864-0.458,11.085-6.562,11.116-11.242
				c0.004-0.693-0.602-1.412-0.99-2.081c-1.756-3.021-1.145-4.796,2.115-6.075c3.391-1.329,7.262,0.166,8.332,3.991
				c0.877,3.141,2.498,3.069,4.695,2.245c1.85-0.692,3.574-1.715,5.359-2.577c3.527-1.701,5.592-4.035,4.035-8.288
				c-0.365-0.996-0.053-2.24-0.053-3.371c0.344-0.047,0.688-0.094,1.031-0.14c0.742,5.107,1.484,10.215,2.227,15.319
				c2.047-2.338,3.838-4.967,6.184-6.938c4.408-3.704,7.648-2.367,8.732,3.261c0.213,1.098,0.484,2.184,0.793,3.561
				c1.67-2.139,2.896-4.115,4.512-5.693c3.52-3.436,6.445-2.684,8.42,1.727c1.682,3.755,3.643,7.385,5.48,11.069
				C473.852,526.682,473.58,526.928,473.309,527.174z M416.686,514.605c-0.813,0.25-1.318,0.514-1.764,0.938
				s-0.295,2.006-0.264,2.373c0.08,0.926,0.807,3.228,1.559,4.096c0.531,0.928,0.912,1.675,1.844,1.781
				c1.064,0.122,2.406-1.535,2.688-1.781c1.848-1.625,1.938-3.224,1.656-3.75C419.623,514.012,417.678,514.449,416.686,514.605z"/>
			<path fill-rule="evenodd" clip-rule="evenodd" d="M303.368,515.399c1.844-1.503,2.279-3.306,1.896-5.71
				c-1.789-11.247-1.931-22.553,0.382-33.717c0.858-4.143,2.562-8.268,4.652-11.963c2.874-5.076,7.468-4.718,10.306,0.438
				c2.234,4.056,2.828,8.572,2.703,13.049c-0.375,13.382-3.957,25.547-14.053,35.141c-0.96,0.914-1.453,3.055-1.16,4.408
				c0.833,3.852,2.186,7.59,3.334,11.373c0.143,0.472,0.478,0.996,0.375,1.408c-0.171,0.687-0.625,1.302-0.959,1.947
				c-0.49-0.354-1.197-0.604-1.424-1.08c-0.418-0.881-0.592-1.887-0.801-2.855c-0.734-3.4-1.484-6.799-2.138-10.216
				c-0.29-1.519-1.067-1.941-2.462-1.502C303.802,515.881,303.584,515.641,303.368,515.399z M305.715,497.146
				c0.294,3.339,0.675,7.809,1.093,12.274c0.059,0.616,0.307,1.215,0.467,1.821c0.689-0.352,1.438-0.627,2.053-1.081
				c0.521-0.386,0.895-0.976,1.326-1.481c8.463-9.908,11.242-21.676,10.711-34.313c-0.141-3.364-1.424-6.827-2.836-9.949
				c-1.357-3-3.791-3.118-5.875-0.562c-1.229,1.51-2.155,3.352-2.873,5.178C306.372,477.701,306.177,486.859,305.715,497.146z"/>
			<path fill-rule="evenodd" clip-rule="evenodd" d="M388.308,527.174c-1.924-3.232-4.152-6.326-5.701-9.73
				c-2.234-4.919-4.477-5.518-7.566-1.066c-1.848,2.664-2.803,5.945-4.207,8.926c-0.322,0.682-0.848,1.268-1.277,1.897
				c-0.338-0.786-0.924-1.559-0.967-2.36c-0.131-2.485,0.191-5.017-0.148-7.463c-0.232-1.672-1.021-4.352-2.02-4.579
				c-1.555-0.355-3.871,0.554-5.201,1.698c-3.063,2.633-4.992,6.135-5.926,10.143c-0.16,0.692-0.791,1.275-1.205,1.91
				c-0.258-0.676-0.676-1.335-0.746-2.029c-0.568-5.613-1.09-11.23-1.584-16.852c-0.098-1.125-0.014-2.265-0.014-3.397
				c0.342-0.046,0.684-0.093,1.027-0.14c0.744,5.108,1.486,10.216,2.23,15.316c2.045-2.335,3.836-4.967,6.182-6.938
				c4.408-3.703,7.646-2.365,8.732,3.263c0.211,1.098,0.484,2.183,0.793,3.559c1.67-2.138,2.896-4.115,4.514-5.693
				c3.518-3.435,6.443-2.682,8.418,1.728c1.682,3.755,3.643,7.385,5.48,11.069C388.851,526.682,388.579,526.928,388.308,527.174z"/>
			<path fill-rule="evenodd" clip-rule="evenodd" d="M183.043,521.438c7.963-3.53,16.67-5.318,23.95-10.475
				c3.588-2.541,9.428-2.451,12.183-0.004c0.569,0.505,0.578,1.643,0.844,2.488c-0.697-0.207-1.536-0.234-2.066-0.652
				c-3.038-2.396-6.221-2.171-9.307-0.383c-1.16,0.672-2.386,1.982-2.633,3.195c-0.149,0.729,1.396,2.034,2.422,2.721
				c1.771,1.185,3.729,2.088,5.608,3.11c-0.233,0.255-0.467,0.509-0.7,0.764c-3.317-1.428-6.952-2.204-9.485-5.189
				c-0.503-0.593-2.098-0.772-2.949-0.47c-4.21,1.502-8.338,3.234-12.498,4.877c-1.553,0.613-2.121,1.26-1.673,3.311
				c0.948,4.336-1.234,7.629-4.85,8.436c-2.121,0.473-4.017,0.18-5.249-1.813c-1.302-2.105-0.348-3.841,1.188-5.3
				c1.433-1.36,3.006-2.572,4.518-3.849C182.579,521.949,182.811,521.693,183.043,521.438z M179.994,531.608
				c2.93-0.08,5.659-2.802,5.418-4.929c-0.099-0.873-1.116-1.642-1.715-2.458c-1.851,1.727-3.746,3.413-5.444,5.278
				C178.15,529.613,179.605,531.145,179.994,531.608z"/>
			<path fill-rule="evenodd" clip-rule="evenodd" d="M182.346,522.205c-1.844-0.738-3.72-1.406-5.522-2.234
				c-1.576-0.725-3.301-2.533-4.54-2.217c-1.45,0.371-2.383,2.582-3.651,3.889c-1.735,1.787-3.416,3.686-5.4,5.158
				c-4.24,3.149-9.446,1.389-10.413-3.717c-0.798-4.219-0.839-8.588-1.079-12.896c-0.035-0.629,0.691-1.299,1.065-1.949
				c0.327,0.619,0.889,1.219,0.943,1.861c0.316,3.801,0.212,7.66,0.825,11.407c0.875,5.354,4.307,6.669,8.371,3.035
				c3.695-3.304,6.894-7.185,10.151-10.949c3.399-3.93,7.493-5.314,12.466-3.896c1.08,0.307,2.176,0.883,3.002,1.627
				c0.437,0.393,0.307,1.414,0.433,2.15c-0.568-0.118-1.293-0.054-1.681-0.385c-3.086-2.634-6.403-2.586-9.685-0.668
				c-1.155,0.674-2.377,1.988-2.616,3.197c-0.145,0.732,1.402,2.028,2.428,2.713c1.769,1.182,3.724,2.086,5.601,3.105
				C182.811,521.693,182.579,521.949,182.346,522.205z"/>
			<path fill-rule="evenodd" clip-rule="evenodd" d="M304.021,516.12c-3.725,4.206-8.454,6.905-13.643,8.786
				c-7.121,2.583-11.809,0.316-14.412-6.725c-0.108-0.294-0.381-0.527-0.623-0.851c-1.625,2.06-3.05,4.289-4.916,6.054
				c-0.917,0.867-2.934,1.524-3.932,1.088c-1.009-0.443-1.826-2.317-1.934-3.63c-0.282-3.437,0.229-6.813,2.834-9.64
				c-0.252,2.406-0.661,4.81-0.694,7.219c-0.019,1.351,0.586,2.709,0.91,4.064c1.266-0.887,2.938-1.512,3.713-2.715
				c1.605-2.487,2.701-5.299,4.078-7.94c0.411-0.788,1.058-1.452,1.597-2.173c0.308,0.808,0.821,1.601,0.88,2.427
				c0.132,1.817-0.13,3.67,0.063,5.477c0.468,4.378,3.962,7.036,8.361,6.542c4.968-0.559,9.012-3.146,12.982-5.896
				c1.357-0.94,2.72-1.872,4.08-2.808C303.584,515.641,303.802,515.881,304.021,516.12z"/>
			<path fill-rule="evenodd" clip-rule="evenodd" d="M611.031,521.42c5.539-2.121,11.08-4.241,16.617-6.365
				c0.93-0.355,1.824-0.84,2.783-1.061c0.727-0.168,1.527-0.011,2.297,0.002c-0.498,0.539-0.895,1.322-1.51,1.576
				c-3.217,1.324-6.496,2.499-9.74,3.759c-1.699,0.659-3.367,1.397-5.055,2.081c-1.535,0.621-2.139,1.244-1.688,3.309
				c0.951,4.348-1.225,7.635-4.844,8.444c-2.121,0.475-4.02,0.183-5.252-1.812c-1.303-2.107-0.332-3.824,1.186-5.307
				c1.408-1.375,2.918-2.643,4.383-3.957C610.482,521.867,610.756,521.644,611.031,521.42z M613.496,525.961
				c-0.375-0.357-1.645-1.713-1.74-1.635c-1.953,1.601-3.771,3.364-5.617,5.096c0.91,0.721,1.754,1.93,2.742,2.062
				C610.912,531.753,613.494,528.797,613.496,525.961z"/>
			<path fill-rule="evenodd" clip-rule="evenodd" d="M257.016,471.531c0.151,3.057,0.804,6.189,0.349,9.153
				c-0.901,5.872-2.859,11.475-6.314,16.433c-0.237-0.207-0.475-0.414-0.713-0.619c0.744-1.813,1.459-3.637,2.236-5.434
				c2.629-6.077,4.511-12.299,3.817-19.039C256.6,471.861,256.808,471.696,257.016,471.531z"/>
			<path fill-rule="evenodd" clip-rule="evenodd" fill="#FFFFFF" d="M508.852,510.338c-0.225,2.47-3.123,5.791-5.068,6.059
				c-0.313,0.043-1.037-0.631-1.039-0.976c-0.004-2.077,2.719-5.595,4.613-5.886C507.855,509.459,508.467,510.117,508.852,510.338z"
				/>
			<path fill-rule="evenodd" clip-rule="evenodd" fill="#FFFFFF" d="M216.522,526.129c-0.122,2.836-2.813,5.715-4.796,5.354
				c-0.948-0.174-1.696-1.439-2.535-2.211c1.882-1.689,3.764-3.378,5.646-5.067C215.506,524.97,216.177,525.735,216.522,526.129z"/>
			<path fill-rule="evenodd" clip-rule="evenodd" fill="#FFFFFF" d="M417.107,520.365c1.604,0.822,2.623,1.344,3.641,1.866
				c-1.246,1.095-2.49,2.188-3.734,3.282c-0.752-0.868-2.01-1.693-2.09-2.619C414.861,522.16,416.244,521.303,417.107,520.365z"/>
			<path fill-rule="evenodd" clip-rule="evenodd" fill="#FFFFFF" d="M179.994,531.608c-0.389-0.464-1.844-1.995-1.741-2.108
				c1.699-1.865,3.593-3.552,5.444-5.278c0.599,0.816,1.616,1.585,1.715,2.458C185.653,528.807,182.924,531.528,179.994,531.608z"/>
			<path fill-rule="evenodd" clip-rule="evenodd" fill="#FFFFFF" d="M613.496,525.961c-0.002,2.836-2.584,5.792-4.615,5.522
				c-0.988-0.132-1.832-1.341-2.742-2.062c1.846-1.731,3.664-3.495,5.617-5.096C611.852,524.248,613.121,525.604,613.496,525.961z"
				/>
		</g>
	</g>
	<line fill-rule="evenodd" clip-rule="evenodd" fill="none" x1="152.117" y1="563.244" x2="152.117" y2="522.628"/>
	<g>
		<defs>
			<rect id="SVGID_3_" x="150.476" y="495.845" width="12.216" height="10.653"/>
		</defs>
		<clipPath id="SVGID_4_">
			<use xlink:href="#SVGID_3_"  overflow="visible"/>
		</clipPath>
		
			<path clip-path="url(#SVGID_4_)" fill-rule="evenodd" clip-rule="evenodd" fill="#704294" stroke="#CA0088" stroke-miterlimit="10" d="
			M145.827,507.806c1.147-0.097,2.276-0.316,3.393-0.589c2.744-0.671,5.129-2.069,7.348-3.761c1.412-1.076,2.646-2.316,2.954-4.19
			c0.082-0.495,0.262-1.053-0.246-1.377c-0.495-0.316-1.088-0.192-1.514,0.169c-1.06,0.896-1.96,1.941-2.611,3.178
			c-0.123,0.233-0.25,0.422-0.505,0.365c-0.28-0.063-0.186-0.334-0.186-0.533c0-0.768,0.001-1.523-0.401-2.231
			c-0.371-0.651-0.887-0.96-1.548-0.816c-0.59,0.128-0.854,0.571-0.902,1.366c-0.074,1.201,0.524,2.142,1.129,3.086
			c0.187,0.291,0.392,0.572,0.583,0.861c0.068,0.104,0.093,0.225-0.023,0.307c-0.116,0.082-0.229,0.023-0.297-0.08
			c-0.862-1.309-1.938-2.52-1.841-4.25c0.055-0.979,0.451-1.52,1.307-1.699c0.79-0.166,1.585,0.273,1.946,1.078
			c0.126,0.281,0.271,0.555,0.366,0.846c0.088,0.271,0.121,0.561,0.2,0.945c0.68-0.799,1.292-1.549,1.937-2.27
			c0.474-0.529,1.053-0.887,1.804-0.869c0.853,0.021,1.418,0.576,1.317,1.396c-0.199,1.615-0.852,3.008-2.094,4.113
			c-1.975,1.758-4.189,3.133-6.611,4.171c-1.262,0.54-2.613,0.79-3.954,1.055c-1.34,0.265-2.69,0.465-4.055,0.564
			c-0.427,0.031-0.874,0.097-1.258-0.063c-0.389-0.16-0.384-0.01-0.354,0.27c0.01,0.094,0.05,0.186,0.067,0.279
			c0.027,0.152-0.026,0.271-0.178,0.32c-0.148,0.047-0.367,0.098-0.416-0.063c-0.116-0.38-0.429-0.792-0.364-1.106
			c0.106-0.506,0.126-1.066,0.426-1.541c-0.445,0.211-0.658,0.652-0.962,0.986c-0.61,0.674-1.37,1.173-1.997,1.822
			c-0.124,0.128-0.297,0.176-0.475,0.189c-0.129,0.01-0.226-0.041-0.266-0.17c-0.035-0.111,0.021-0.191,0.108-0.242
			c1.339-0.777,2.279-1.982,3.351-3.056c0.642-0.644,0.926-1.39,1.107-2.223c0.537-2.479,1.007-4.976,1.731-7.413
			c0.489-1.645,1.091-3.242,1.858-4.777c0.098-0.194,0.207-0.371,0.428-0.443c0.344-0.111,0.567,0.016,0.51,0.375
			c-0.407,2.543-0.483,5.143-1.279,7.617c-0.169,0.527-0.481,1.003-0.593,1.615c0.523-0.465,1.018-0.884,1.49-1.326
			c0.583-0.547,1.317-0.805,2.048-1.02c0.778-0.23,1.377,0.16,1.578,0.943c0.301,1.17,0.207,2.315-0.188,3.463
			c-0.453,1.318-1.114,2.482-2.129,3.449C147.042,507.027,146.407,507.353,145.827,507.806z"/>
	</g>
	<path opacity="0.5" fill-rule="evenodd" clip-rule="evenodd" d="M367.047,518.204c2.472-5.748,4.856-11.535,7.436-17.234
		c3.688-8.152,9.201-15.01,15.591-21.184c1.187-1.147,2.533-2.213,3.981-2.986c2.547-1.359,5.082-3.932,8.205-1.975
		c2.88,1.803,2.084,5.067,1.909,7.807c-0.573,8.961-2.348,17.84-1.646,26.895c0.43,5.539,1.512,10.891,3.859,15.934
		c4.908,10.547,13.25,12.67,22.578,5.828c0.594-0.436,1.1-1.305,2.107-0.844c-7.133,9.252-17.881,8.908-24.154-0.633
		c-4.804-7.305-5.984-15.467-5.765-23.887c0.208-7.982,0.948-15.949,1.299-23.93c0.083-1.883,0.792-4.322-1.371-5.467
		c-2.187-1.158-4.237,0.27-5.982,1.479c-7.995,5.546-13.474,13.259-18.038,21.655c-3.662,6.74-6.363,13.902-8.621,21.232
		c-0.76,2.469-1.682,4.887-3.303,7.23c-1.641-5.496-0.855-10.977-0.408-16.402c0.846-10.283,1.934-20.545,2.815-30.824
		c0.149-1.738,0.742-4.074-1.209-5.002c-2.196-1.043-3.688,1.035-4.976,2.41c-10.312,11.01-16.175,24.229-19.073,38.893
		c-0.754,3.814-1.596,7.613-2.636,12.551c-2.166-2.891-1.665-5.09-1.754-7.051c-0.581-12.813,1.263-25.645-0.232-38.449
		c-0.327-2.8-0.84-5.6-1.549-8.326c-0.992-3.814-2.659-6.939-8.153-4.389c3.708-4.082,6.268-3.903,8.458,0.221
		c2.138,4.027,2.795,8.521,3.15,13.021c0.67,8.484,0.3,16.982,0.195,25.477c-0.019,1.547-0.779,3.229,0.901,5.24
		c1.01-3.357,1.931-6.266,2.76-9.201c2.902-10.285,8.23-19.246,15.146-27.268c2.32-2.691,5.105-6.785,8.801-5.221
		c3.986,1.688,2.223,6.574,1.844,9.998C367.953,495.2,366.736,506.589,367.047,518.204z"/>
	<path opacity="0.5" fill-rule="evenodd" clip-rule="evenodd" d="M81.135,467.698c2.602,15.134,2.104,30.518,4.321,45.655
		c1.208-7.799,1.751-15.634,3.842-23.228c2.234-8.111,6.501-14.841,13.11-20.098c4.104-3.264,8.706-4.771,13.923-4.252
		c8.287,0.826,11.587,7.626,7.279,14.752c-2.375,3.928-6.486,5.988-9.629,9.137c11.145,6.69,13.379,19.743,4.886,30.677
		c-7.218,9.293-16.776,15.006-28.691,16.203c-6.819,0.684-8.505-1.459-7.175-7.986c0.621-3.049,0.609-6.303,0.393-9.432
		c-1.145-16.578-1.514-33.215-3.55-49.73C79.761,468.729,79.687,468.083,81.135,467.698z M95.436,495.564
		c2.922-3.206,6.563-3.38,9.707-4.521c6.834-2.481,13.162-5.708,17.417-11.858c3.345-4.834,1.958-8.93-3.508-11.042
		c-2.215-0.856-4.47-1.063-6.851-0.54c-9.259,2.035-15.064,8.168-18.899,16.307c-3.518,7.465-4.396,15.636-5.06,23.755
		c-0.351,4.297-1.636,8.633-0.41,13.504c3.655-2.664,6.778-5.189,10.638-6.387c1.033-0.32,2.486-1.111,2.762,0.721
		c0.208,1.385-1.265,1.141-2.155,1.406c-6.172,1.838-11.205,4.803-12.884,11.732c-1.362,5.617-0.019,7.299,6.076,6.037
		c9.157-1.895,17.226-6,23.675-12.947c4.149-4.469,6.088-9.842,6.296-15.863c0.395-11.386-5.333-15.682-16.473-12.761
		C102.575,493.943,99.652,496.181,95.436,495.564z"/>
	<g>
		<defs>
			
				<rect id="SVGID_5_" x="430" y="438.873" transform="matrix(-1 2.128204e-004 -2.128204e-004 -1 1107.9761 996.2249)" width="247.869" height="118.597"/>
		</defs>
		<clipPath id="SVGID_6_">
			<use xlink:href="#SVGID_5_"  overflow="visible"/>
		</clipPath>
		<g opacity="0.5" clip-path="url(#SVGID_6_)">
			<path fill-rule="evenodd" clip-rule="evenodd" d="M493.102,529.938c1.076,0.778,2.146,1.566,3.232,2.331
				c7.469,5.251,14.91,3.729,19.361-4.242c1.846-3.303,2.898-7.041,4.621-10.424c1.023-2.012,2.387-4.039,4.104-5.439
				c1.025-0.836,3.029-0.473,4.596-0.647c0.063,1.534,0.75,3.489,0.059,4.519c-1.518,2.264-3.443,4.561-5.752,5.891
				c-1.889,1.087-2.176,1.823-1.762,3.742c1.582,7.357,7.836,9.783,13.869,4.92c5.408-4.357,9.92-9.467,9.146-17.246
				c-0.047-0.463,0.188-0.959,0.326-1.43c0.02-0.07,0.229-0.085,1.088-0.371c0.344,3.324,0.674,6.498,1.004,9.682
				c1.762-1.592,3.396-3.466,5.395-4.789c4.016-2.659,6.174-1.447,6.344,3.333c0.094,2.662-0.119,5.354,0.211,7.983
				c0.418,3.343,1.285,6.58,5.068,7.891c3.662,1.27,6.625-0.203,9.057-2.617c4.898-4.86,9.098-10.582,10.777-17.129
				c1.406-5.49,0.553-11.572,0.549-17.392c0-0.386-1.391-1.213-1.969-1.085c-4.109,0.914-7.807,2.682-10.918,5.635
				c-0.541,0.514-1.652,0.424-2.502,0.613c0.355-0.816,0.486-2.055,1.104-2.383c3.488-1.857,7-3.744,10.689-5.123
				c2.389-0.892,4.045-1.598,3.992-4.618c-0.055-3.135,0.441-6.289,0.826-9.419c0.207-1.686,0.688-3.338,1.045-5.005
				c0.432,0.064,0.863,0.128,1.293,0.192c-0.135,2.074-0.23,4.153-0.422,6.223c-0.121,1.322-0.525,2.627-0.559,3.945
				c-0.164,6.537-1.309,7.433,6.305,5.988c5.359-1.018,10.988-0.551,16.396-1.389c8.834-1.367,17.604-3.179,26.363-4.984
				c2-0.413,4.314-0.911,4.828-3.645c0.072-0.381,0.965-0.606,1.479-0.904c0.314,0.684,1.063,1.784,0.873,1.98
				c-1.326,1.379-2.656,3.095-4.348,3.713c-3.721,1.361-7.602,2.516-11.516,3.075c-9.029,1.29-18.115,2.185-27.18,3.222
				c-3.299,0.377-6.607,0.666-9.902,1.061c-2.199,0.264-3.58,1.132-3.525,3.799c0.146,7.155-0.221,14.33,0.125,21.472
				c0.313,6.444,2.482,12.364,7.195,17.063c3.779,3.768,7.377,4.019,11.434,0.571c1.756-1.491,3.365-3.271,4.639-5.188
				c3.215-4.839,6.301-9.771,9.25-14.774c2.936-4.982,8.326-7.223,13.57-5.254c1.043,0.393,2.016,1.121,2.834,1.893
				c0.33,0.313,0.162,1.154,0.221,1.756c-0.566-0.092-1.301,0.014-1.674-0.305c-3.48-2.969-7.037-2.48-10.57-0.246
				c-2.799,1.771-2.727,3.443,0.18,5.201c1.973,1.193,4.035,2.232,6.059,3.34c-0.275,0.224-0.549,0.447-0.822,0.67
				c-1.691-0.663-3.426-1.238-5.063-2.019c-1.33-0.634-3.238-2.44-3.678-2.111c-1.361,1.021-2.102,2.843-3.158,4.3
				c-3.203,4.423-6.014,9.232-9.768,13.128c-5.291,5.487-10.158,5.063-15.484-0.307c-3.004-3.026-4.979-6.581-5.893-10.756
				c-0.531-2.424-1.225-4.813-1.92-7.508c-1.832,2.922-3.402,5.886-5.418,8.507c-1.906,2.48-4.027,4.936-6.5,6.812
				c-6.045,4.584-13.947,1.088-14.857-6.417c-0.379-3.133-0.451-6.301-0.766-9.442c-0.34-3.397-1.365-4.001-3.838-1.659
				c-2.215,2.096-3.699,4.961-5.52,7.477c-0.615,0.852-1.271,1.673-1.91,2.508c-0.283-1.033-0.557-2.068-0.854-3.098
				c-0.078-0.27-0.229-0.518-0.313-0.701c-2,2.156-3.891,4.446-6.039,6.463c-6.662,6.257-15.738,6.431-18.932-5.57
				c-0.498,0.836-0.867,1.408-1.189,2.006c-6.379,11.785-16.43,13.14-25.803,3.473C492.559,530.432,492.83,530.186,493.102,529.938z
				 M527.83,513.842c-0.385-0.221-0.996-0.879-1.494-0.803c-1.895,0.291-4.617,3.809-4.613,5.886
				c0.002,0.345,0.727,1.019,1.039,0.976C524.707,519.633,527.605,516.312,527.83,513.842z"/>
			<path fill-rule="evenodd" clip-rule="evenodd" d="M121.132,533.627c1.103-2.98,1.484-5.461,2.807-7.242
				c1.929-2.599,4.336-4.953,6.912-6.926c2.232-1.709,5.034-1.777,7.488-0.059c2.544,1.783,2.953,4.252,1.405,7.168
				c0.305,0.168,0.609,0.336,0.915,0.504c4.024-3.25,8.159-6.379,11.98-9.854c0.783-0.713,0.677-2.762,0.489-4.127
				c-1.58-11.445-1.764-22.9,0.557-34.225c0.815-3.979,2.595-7.911,4.649-11.449c2.825-4.865,7.16-4.596,10.052,0.199
				c2.321,3.848,2.949,8.217,2.895,12.494c-0.173,13.549-3.54,26.021-13.871,35.643c-1.619,1.508-1.897,3.094-1.392,4.914
				c1.057,3.807,2.295,7.563,3.436,11.346c0.188,0.625,0.365,1.289,0.345,1.928c-0.014,0.444-0.405,1.26-0.574,1.246
				c-0.577-0.048-1.341-0.235-1.642-0.652c-0.464-0.646-0.684-1.506-0.87-2.307c-0.71-3.066-1.354-6.147-2.043-9.219
				c-0.986-4.386-1.108-4.508-4.581-1.328c-6.244,5.718-13.444,9.695-21.435,12.311c-0.624,0.203-1.447-0.203-2.177-0.326
				c0.518-0.527,0.944-1.242,1.57-1.549c2.079-1.018,4.325-1.721,6.319-2.869c1.399-0.807,2.819-1.939,3.656-3.283
				c1.899-3.051,0.273-5.586-3.352-5.598c-5.099-0.017-10.358,5.553-10.847,11.789c-0.233,2.977,0.075,5.99-0.002,8.984
				c-0.017,0.654-0.632,1.293-0.972,1.939c-0.451-0.57-1.139-1.076-1.318-1.722c-3.546-12.798-7.086-25.603-7.85-38.959
				c-0.687-12.001,1.041-23.538,6.834-34.238c1.103-2.036,2.352-4.031,3.792-5.839c4.119-5.17,9.999-4.902,13.651,0.634
				c3.434,5.203,3.398,10.964,2.343,16.839c-2.469,13.75-9.976,24.505-20.307,33.403c-2.407,2.073-2.998,3.856-2.184,6.735
				C119.028,524.232,119.936,528.62,121.132,533.627z M116.428,513.617c6.803-4.637,10.93-9.856,14.629-15.369
				c4.802-7.158,7.635-15.059,7.813-23.795c0.08-3.912-0.55-7.609-2.869-10.863c-2.75-3.86-5.917-4.342-9.015-0.839
				c-2.384,2.696-4.435,5.812-6.056,9.032c-4.194,8.334-5.668,17.283-5.164,26.584C116.024,503.146,116.185,507.93,116.428,513.617z
				 M153.71,500.648c0.285,3.273,0.707,8.073,1.117,12.873c0.124,1.456,0.747,1.727,1.833,0.771
				c0.621-0.548,1.192-1.162,1.733-1.791c8.604-10.011,11.451-21.896,10.983-34.732c-0.101-2.756-0.98-5.583-2.02-8.168
				c-0.616-1.529-2.319-3.757-3.41-3.689c-1.579,0.1-3.282,1.788-4.488,3.184c-1.039,1.201-1.593,2.893-2.125,4.449
				C154.506,481.828,154.093,490.453,153.71,500.648z"/>
			<path fill-rule="evenodd" clip-rule="evenodd" d="M270.03,500.621c-2.111,3.145-4.088,6.391-6.38,9.398
				c-1.603,2.102-3.663,3.854-5.459,5.814c-0.414,0.453-0.587,1.125-0.871,1.697c0.711,0.209,1.422,0.599,2.132,0.599
				c8.933-0.003,16.922-2.738,23.999-8.235c1.006-0.783,2.441-1.015,3.677-1.501c0.719,2.218-1.396,2.452-2.445,2.996
				c-4.828,2.497-9.784,4.746-14.694,7.086c-0.565,0.269-1.125,0.55-1.687,0.824c0.38,0.438,0.735,0.901,1.144,1.311
				c0.818,0.821,1.9,1.476,2.464,2.438c5.508,9.395,7.476,19.46,4.864,30.111c-1.02,4.16-4.341,5.372-8.163,3.355
				c-5.98-3.156-9.306-8.699-10.917-14.82c-1.929-7.324-2.704-14.954-4.036-22.789c-4.976,1.984-10.321,4.161-15.706,6.236
				c-1.694,0.652-1.446,1.566-1.188,3.072c0.754,4.395-1.277,7.646-4.894,8.454c-2.121,0.475-4.019,0.182-5.251-1.81
				c-1.303-2.105-0.35-3.842,1.187-5.301c1.433-1.361,3.005-2.574,4.516-3.853c0.233-0.255,0.467-0.509,0.7-0.764
				c6.438-2.487,12.849-5.045,19.329-7.415c1.851-0.678,1.911-1.889,1.995-3.455c0.338-6.275,0.565-12.566,1.235-18.809
				c0.836-7.789,2.861-15.251,7.726-21.648c0.3-0.396,0.556-0.825,0.867-1.211c1.884-2.342,4.294-3.906,7.316-3.209
				c2.852,0.657,4.258,2.921,4.504,5.84c-0.208,0.165-0.417,0.33-0.625,0.494c-3.747-5.967-7.757-5.943-11.499,0.15
				c-1.12,1.822-2.18,3.738-2.896,5.743c-3.811,10.677-4.972,21.759-5.142,33.792c5.835-4.578,9.719-9.841,13.483-15.213
				C269.555,500.207,269.792,500.414,270.03,500.621z M276.106,545.112c0.198-0.059,0.397-0.117,0.595-0.176
				c-1.222-5.45-1.989-11.057-3.782-16.313c-2.199-6.444-5.804-8.403-12.573-8.222c-3.602,0.097-3.808,0.164-3.618,3.586
				c0.184,3.296,0.853,6.563,1.057,9.859c0.441,7.131,4.026,12.852,8.053,18.363c0.746,1.022,1.958,1.828,3.12,2.398
				c2.953,1.453,5.785,0.133,6.466-3.077C275.869,549.438,275.894,547.256,276.106,545.112z M235.501,529.633
				c-0.345-0.394-1.016-1.159-1.686-1.925c-1.882,1.689-3.764,3.378-5.646,5.067c0.839,0.771,1.587,2.037,2.535,2.211
				C232.688,535.348,235.379,532.469,235.501,529.633z"/>
			<path fill-rule="evenodd" clip-rule="evenodd" d="M492.287,530.678c-1.924-3.232-4.152-6.326-5.699-9.729
				c-2.236-4.919-4.477-5.519-7.566-1.069c-1.85,2.664-2.803,5.944-4.209,8.924c-0.32,0.683-0.844,1.271-1.273,1.901
				c-0.338-0.784-0.928-1.556-0.969-2.355c-0.133-2.485,0.189-5.017-0.15-7.462c-0.232-1.672-1.016-4.352-2.014-4.582
				c-1.553-0.359-3.871,0.549-5.201,1.691c-3.064,2.631-4.994,6.131-5.928,10.139c-0.162,0.695-0.787,1.281-1.199,1.918
				c-0.26-0.672-0.555-1.334-0.766-2.021c-0.092-0.305,0.018-0.664-0.021-0.992c-0.313-2.633-0.639-5.265-0.959-7.896
				c-2.15,1.109-4.287,2.246-6.457,3.316c-1.186,0.585-2.389,1.352-3.652,1.52c-2.797,0.37-4.668,1.4-5.934,4.209
				c-1.164,2.587-3.928,3.02-6.473,1.982c-1.25-0.51-1.807-0.568-2.787,0.459c-8.047,8.43-15.637,8.411-23.742,0.049
				c0.271-0.246,0.543-0.492,0.814-0.739c3.83,3.001,7.727,5.732,13.012,5.233c4.865-0.458,11.086-6.562,11.117-11.242
				c0.004-0.693-0.602-1.412-0.99-2.081c-1.756-3.021-1.145-4.796,2.115-6.075c3.391-1.329,7.262,0.166,8.332,3.991
				c0.877,3.141,2.498,3.069,4.695,2.245c1.848-0.692,3.572-1.715,5.357-2.577c3.527-1.701,5.592-4.035,4.035-8.288
				c-0.365-0.996-0.053-2.24-0.053-3.371c0.344-0.047,0.688-0.094,1.031-0.14c0.742,5.107,1.484,10.215,2.227,15.319
				c2.047-2.338,3.838-4.967,6.184-6.938c4.408-3.704,7.648-2.367,8.732,3.261c0.213,1.098,0.484,2.184,0.793,3.561
				c1.67-2.139,2.896-4.115,4.512-5.693c3.52-3.436,6.445-2.684,8.42,1.727c1.682,3.755,3.643,7.385,5.48,11.069
				C492.83,530.186,492.559,530.432,492.287,530.678z M435.666,518.109c-0.813,0.25-1.318,0.514-1.764,0.938
				s-0.295,2.006-0.264,2.373c0.08,0.926,0.807,3.228,1.559,4.096c0.531,0.928,0.912,1.675,1.844,1.781
				c1.064,0.122,2.406-1.535,2.688-1.781c1.848-1.625,1.938-3.224,1.656-3.75C438.604,517.516,436.658,517.953,435.666,518.109z"/>
			<path fill-rule="evenodd" clip-rule="evenodd" d="M322.347,518.903c1.845-1.503,2.28-3.306,1.897-5.71
				c-1.789-11.247-1.932-22.553,0.381-33.717c0.859-4.143,2.562-8.268,4.652-11.963c2.875-5.076,7.468-4.718,10.307,0.438
				c2.234,4.056,2.827,8.572,2.702,13.049c-0.375,13.382-3.957,25.547-14.052,35.141c-0.961,0.914-1.454,3.055-1.161,4.408
				c0.833,3.852,2.187,7.59,3.334,11.373c0.144,0.472,0.478,0.996,0.375,1.408c-0.171,0.687-0.624,1.302-0.958,1.947
				c-0.49-0.354-1.197-0.604-1.424-1.08c-0.418-0.881-0.593-1.887-0.802-2.855c-0.734-3.4-1.483-6.799-2.138-10.216
				c-0.29-1.519-1.066-1.941-2.461-1.502C322.781,519.385,322.563,519.145,322.347,518.903z M324.693,500.65
				c0.294,3.339,0.675,7.809,1.094,12.274c0.058,0.616,0.306,1.215,0.466,1.821c0.69-0.352,1.438-0.627,2.054-1.081
				c0.521-0.386,0.895-0.976,1.326-1.481c8.462-9.908,11.241-21.676,10.71-34.313c-0.141-3.364-1.424-6.827-2.836-9.949
				c-1.356-3-3.79-3.118-5.874-0.562c-1.23,1.51-2.156,3.352-2.874,5.178C325.352,481.205,325.156,490.363,324.693,500.65z"/>
			<path fill-rule="evenodd" clip-rule="evenodd" d="M407.287,530.678c-1.924-3.232-4.152-6.326-5.701-9.73
				c-2.234-4.919-4.477-5.518-7.566-1.066c-1.848,2.664-2.803,5.945-4.207,8.926c-0.322,0.682-0.848,1.268-1.277,1.897
				c-0.338-0.786-0.924-1.559-0.967-2.36c-0.131-2.485,0.191-5.017-0.148-7.463c-0.232-1.672-1.021-4.352-2.02-4.579
				c-1.555-0.355-3.871,0.554-5.201,1.698c-3.063,2.633-4.992,6.135-5.926,10.143c-0.16,0.692-0.791,1.275-1.205,1.91
				c-0.258-0.676-0.676-1.335-0.746-2.029c-0.568-5.613-1.09-11.23-1.584-16.852c-0.098-1.125-0.014-2.265-0.014-3.397
				c0.342-0.046,0.684-0.093,1.027-0.14c0.744,5.108,1.486,10.216,2.23,15.316c2.045-2.335,3.836-4.967,6.182-6.938
				c4.408-3.703,7.646-2.365,8.732,3.263c0.211,1.098,0.484,2.183,0.793,3.559c1.67-2.138,2.896-4.115,4.514-5.693
				c3.518-3.435,6.443-2.682,8.418,1.728c1.682,3.755,3.643,7.385,5.48,11.069C407.83,530.186,407.559,530.432,407.287,530.678z"/>
			<path fill-rule="evenodd" clip-rule="evenodd" d="M202.022,524.941c7.963-3.53,16.67-5.318,23.95-10.475
				c3.588-2.541,9.428-2.451,12.183-0.004c0.569,0.505,0.578,1.643,0.844,2.488c-0.697-0.207-1.536-0.234-2.066-0.652
				c-3.038-2.396-6.221-2.171-9.307-0.383c-1.16,0.672-2.386,1.982-2.633,3.195c-0.149,0.729,1.396,2.034,2.422,2.721
				c1.771,1.185,3.729,2.088,5.608,3.11c-0.233,0.255-0.467,0.509-0.7,0.764c-3.317-1.428-6.952-2.204-9.485-5.189
				c-0.503-0.593-2.098-0.772-2.949-0.47c-4.21,1.502-8.338,3.234-12.498,4.877c-1.553,0.613-2.121,1.26-1.673,3.311
				c0.948,4.336-1.234,7.629-4.85,8.436c-2.121,0.473-4.017,0.18-5.249-1.813c-1.302-2.105-0.348-3.841,1.188-5.3
				c1.433-1.36,3.006-2.572,4.518-3.849C201.558,525.453,201.79,525.197,202.022,524.941z M198.973,535.112
				c2.93-0.08,5.659-2.802,5.418-4.929c-0.099-0.873-1.116-1.642-1.715-2.458c-1.851,1.727-3.746,3.413-5.444,5.278
				C197.129,533.117,198.584,534.648,198.973,535.112z"/>
			<path fill-rule="evenodd" clip-rule="evenodd" d="M201.325,525.709c-1.844-0.738-3.72-1.406-5.522-2.234
				c-1.576-0.725-3.301-2.533-4.54-2.217c-1.45,0.371-2.383,2.582-3.651,3.889c-1.735,1.787-3.416,3.686-5.4,5.158
				c-4.24,3.149-9.446,1.389-10.413-3.717c-0.798-4.219-0.839-8.588-1.079-12.896c-0.035-0.629,0.691-1.299,1.065-1.949
				c0.327,0.619,0.889,1.219,0.943,1.861c0.316,3.801,0.212,7.66,0.825,11.407c0.875,5.354,4.307,6.669,8.371,3.035
				c3.695-3.304,6.894-7.185,10.151-10.949c3.399-3.93,7.493-5.314,12.466-3.896c1.08,0.307,2.176,0.883,3.002,1.627
				c0.437,0.393,0.307,1.414,0.433,2.15c-0.568-0.118-1.293-0.054-1.681-0.385c-3.086-2.634-6.403-2.586-9.685-0.668
				c-1.155,0.674-2.377,1.988-2.616,3.197c-0.145,0.732,1.402,2.028,2.428,2.713c1.769,1.182,3.724,2.086,5.601,3.105
				C201.79,525.197,201.558,525.453,201.325,525.709z"/>
			<path fill-rule="evenodd" clip-rule="evenodd" d="M323,519.624c-3.725,4.206-8.455,6.905-13.643,8.786
				c-7.122,2.583-11.81,0.316-14.412-6.725c-0.108-0.294-0.381-0.527-0.623-0.851c-1.625,2.06-3.05,4.289-4.916,6.054
				c-0.917,0.867-2.934,1.524-3.932,1.088c-1.009-0.443-1.826-2.317-1.934-3.63c-0.282-3.437,0.229-6.813,2.834-9.64
				c-0.252,2.406-0.661,4.81-0.694,7.219c-0.019,1.351,0.586,2.709,0.91,4.064c1.266-0.887,2.938-1.512,3.713-2.715
				c1.605-2.487,2.701-5.299,4.078-7.94c0.411-0.788,1.058-1.452,1.597-2.173c0.308,0.808,0.821,1.601,0.88,2.427
				c0.132,1.817-0.13,3.67,0.063,5.477c0.468,4.378,3.962,7.036,8.362,6.542c4.967-0.559,9.011-3.146,12.982-5.896
				c1.357-0.94,2.719-1.872,4.079-2.808C322.563,519.145,322.781,519.385,323,519.624z"/>
			<path fill-rule="evenodd" clip-rule="evenodd" d="M630.01,524.924c5.539-2.121,11.08-4.241,16.617-6.365
				c0.93-0.355,1.824-0.84,2.783-1.061c0.727-0.168,1.527-0.011,2.297,0.002c-0.498,0.539-0.895,1.322-1.51,1.576
				c-3.217,1.324-6.496,2.499-9.74,3.759c-1.699,0.659-3.367,1.397-5.055,2.081c-1.535,0.621-2.139,1.244-1.688,3.309
				c0.951,4.348-1.225,7.635-4.844,8.444c-2.121,0.475-4.02,0.183-5.252-1.812c-1.303-2.107-0.332-3.824,1.186-5.307
				c1.408-1.375,2.918-2.643,4.383-3.957C629.461,525.371,629.734,525.147,630.01,524.924z M632.475,529.465
				c-0.375-0.357-1.645-1.713-1.74-1.635c-1.953,1.601-3.771,3.364-5.617,5.096c0.91,0.721,1.754,1.93,2.742,2.062
				C629.891,535.257,632.473,532.301,632.475,529.465z"/>
			<path fill-rule="evenodd" clip-rule="evenodd" d="M275.995,475.035c0.151,3.057,0.804,6.189,0.349,9.153
				c-0.901,5.872-2.859,11.475-6.314,16.433c-0.237-0.207-0.475-0.414-0.713-0.619c0.744-1.813,1.459-3.637,2.236-5.434
				c2.629-6.077,4.511-12.299,3.817-19.039C275.579,475.365,275.787,475.2,275.995,475.035z"/>
			<path fill-rule="evenodd" clip-rule="evenodd" fill="#FFFFFF" d="M527.83,513.842c-0.225,2.47-3.123,5.791-5.068,6.059
				c-0.313,0.043-1.037-0.631-1.039-0.976c-0.004-2.077,2.719-5.595,4.613-5.886C526.834,512.963,527.445,513.621,527.83,513.842z"
				/>
			<path fill-rule="evenodd" clip-rule="evenodd" fill="#FFFFFF" d="M235.501,529.633c-0.122,2.836-2.813,5.715-4.796,5.354
				c-0.948-0.174-1.696-1.439-2.535-2.211c1.882-1.689,3.764-3.378,5.646-5.067C234.485,528.474,235.156,529.239,235.501,529.633z"
				/>
			<path fill-rule="evenodd" clip-rule="evenodd" fill="#FFFFFF" d="M436.088,523.869c1.604,0.822,2.623,1.344,3.641,1.866
				c-1.246,1.095-2.49,2.188-3.734,3.282c-0.752-0.868-2.01-1.693-2.09-2.619C433.842,525.664,435.225,524.807,436.088,523.869z"/>
			<path fill-rule="evenodd" clip-rule="evenodd" fill="#FFFFFF" d="M198.973,535.112c-0.389-0.464-1.844-1.995-1.741-2.108
				c1.699-1.865,3.593-3.552,5.444-5.278c0.599,0.816,1.616,1.585,1.715,2.458C204.632,532.311,201.903,535.032,198.973,535.112z"/>
			<path fill-rule="evenodd" clip-rule="evenodd" fill="#FFFFFF" d="M632.475,529.465c-0.002,2.836-2.584,5.792-4.615,5.522
				c-0.988-0.132-1.832-1.341-2.742-2.062c1.846-1.731,3.664-3.495,5.617-5.096C630.83,527.752,632.1,529.107,632.475,529.465z"/>
		</g>
	</g>
</g>
<g id="Layer_2">
</g>
</svg>
